HIERARCHY
ROOT Hips
{
	OFFSET 0.000000 0.000000 0.000000
	CHANNELS 6 Xposition Yposition Zposition Zrotation Yrotation Xrotation 
	JOINT LHipJoint
	{
		OFFSET 0.000000 0.000000 0.000000
		CHANNELS 3 Zrotation Yrotation Xrotation
		JOINT LeftUpLeg
		{
			OFFSET 1.363060 -1.794630 0.839290
			CHANNELS 3 Zrotation Yrotation Xrotation
			JOINT LeftLeg
			{
				OFFSET 2.448110 -6.726130 0.000000
				CHANNELS 3 Zrotation Yrotation Xrotation
				JOINT LeftFoot
				{
					OFFSET 2.562200 -7.039590 0.000000
					CHANNELS 3 Zrotation Yrotation Xrotation
					JOINT LeftToeBase
					{
						OFFSET 0.157640 -0.433110 2.322550
						CHANNELS 3 Zrotation Yrotation Xrotation
						End Site
						{
							OFFSET 0.000000 0.000000 0.000000
						}
					}
				}
			}
		}
	}
	JOINT RHipJoint
	{
		OFFSET 0.000000 0.000000 0.000000
		CHANNELS 3 Zrotation Yrotation Xrotation
		JOINT RightUpLeg
		{
			OFFSET -1.305520 -1.794630 0.839290
			CHANNELS 3 Zrotation Yrotation Xrotation
			JOINT RightLeg
			{
				OFFSET -2.542530 -6.985550 0.000000
				CHANNELS 3 Zrotation Yrotation Xrotation
				JOINT RightFoot
				{
					OFFSET -2.568260 -7.056230 0.000000
					CHANNELS 3 Zrotation Yrotation Xrotation
					JOINT RightToeBase
					{
						OFFSET -0.164730 -0.452590 2.363150
						CHANNELS 3 Zrotation Yrotation Xrotation
						End Site
						{
							OFFSET 0.000000 0.000000 0.000000
						}
					}
				}
			}
		}
	}
	JOINT LowerBack
	{
		OFFSET 0.000000 0.000000 0.000000
		CHANNELS 3 Zrotation Yrotation Xrotation
		JOINT Spine
		{
			OFFSET 0.028270 2.035590 -0.193380
			CHANNELS 3 Zrotation Yrotation Xrotation
			JOINT Spine1
			{
				OFFSET 0.056720 2.048850 -0.042750
				CHANNELS 3 Zrotation Yrotation Xrotation
				JOINT Neck
				{
					OFFSET 0.000000 0.000000 0.000000
					CHANNELS 3 Zrotation Yrotation Xrotation
					JOINT Neck1
					{
						OFFSET -0.054170 1.746240 0.172020
						CHANNELS 3 Zrotation Yrotation Xrotation
						JOINT Head
						{
							OFFSET 0.104070 1.761360 -0.123970
							CHANNELS 3 Zrotation Yrotation Xrotation
							End Site
							{
								OFFSET 0.000000 0.000000 0.000000
							}
						}
					}
				}
				JOINT LeftShoulder
				{
					OFFSET 0.000000 0.000000 0.000000
					CHANNELS 3 Zrotation Yrotation Xrotation
					JOINT LeftArm
					{
						OFFSET 3.362410 1.200890 -0.311210
						CHANNELS 3 Zrotation Yrotation Xrotation
						JOINT LeftForeArm
						{
							OFFSET 4.983000 -0.000000 -0.000000
							CHANNELS 3 Zrotation Yrotation Xrotation
							JOINT LeftHand
							{
								OFFSET 3.483560 -0.000000 -0.000000
								CHANNELS 3 Zrotation Yrotation Xrotation
								JOINT LeftFingerBase
								{
									OFFSET 0.000000 0.000000 0.000000
									CHANNELS 3 Zrotation Yrotation Xrotation
									JOINT LeftHandIndex1
									{
										OFFSET 0.715260 -0.000000 -0.000000
										CHANNELS 3 Zrotation Yrotation Xrotation
										End Site
										{
											OFFSET 0.000000 0.000000 0.000000
										}
									}
								}
								JOINT LThumb
								{
									OFFSET 0.000000 0.000000 0.000000
									CHANNELS 3 Zrotation Yrotation Xrotation
									End Site
									{
										OFFSET 0.000000 0.000000 0.000000
									}
								}
							}
						}
					}
				}
				JOINT RightShoulder
				{
					OFFSET 0.000000 0.000000 0.000000
					CHANNELS 3 Zrotation Yrotation Xrotation
					JOINT RightArm
					{
						OFFSET -3.136600 1.374050 -0.404650
						CHANNELS 3 Zrotation Yrotation Xrotation
						JOINT RightForeArm
						{
							OFFSET -5.241900 -0.000000 -0.000000
							CHANNELS 3 Zrotation Yrotation Xrotation
							JOINT RightHand
							{
								OFFSET -3.444170 -0.000000 -0.000000
								CHANNELS 3 Zrotation Yrotation Xrotation
								JOINT RightFingerBase
								{
									OFFSET 0.000000 0.000000 0.000000
									CHANNELS 3 Zrotation Yrotation Xrotation
									JOINT RightHandIndex1
									{
										OFFSET -0.622530 -0.000000 -0.000000
										CHANNELS 3 Zrotation Yrotation Xrotation
										End Site
										{
											OFFSET 0.000000 0.000000 0.000000
										}
									}
								}
								JOINT RThumb
								{
									OFFSET 0.000000 0.000000 0.000000
									CHANNELS 3 Zrotation Yrotation Xrotation
									End Site
									{
										OFFSET 0.000000 0.000000 0.000000
									}
								}
							}
						}
					}
				}
			}
		}
	}
}
MOTION
Frames: 5
Frame Time: 0.008333
0.848942 17.324260 -8.903657 -6.184448 -4.078349 3.795193 1.816937 1.271244 0.472906 -8.863245 -13.767503 -32.068491 0.018028 7.047951 19.030200 -0.433435 4.962487 7.210180 0.017400 -0.852400 -2.342700 -3.603077 -2.921819 0.503452 34.439293 -0.326243 14.329459 -0.306424 -2.829490 12.104095 -0.038895 -1.103467 -6.293532 -0.001100 0.215900 -0.593300 6.415855 2.738561 6.810627 1.368040 3.744687 -1.148072 -0.387977 2.383812 -3.409499 -7.156699 -1.854136 -12.087385 3.192494 -1.535865 15.143573 2.777800 -1.255400 9.668500 -7.459724 3.094689 -2.108400 -84.332594 7.022750 17.896187 8.136304 -15.273254 -1.053492 -0.930396 -2.945565 21.817883 9.173652 23.705627 4.079700 -7.125000 0.000000 0.000000 -22.656300 55.637000 -6.141600 5.228504 -2.006288 -2.072168 77.191474 10.614982 24.381865 -20.759287 29.817754 -7.206834 0.911853 -0.430092 0.066991 -13.656954 14.391522 -3.792100 7.125000 0.000000 0.000000 8.789500 -14.858100 6.317800
0.853926 17.319995 -8.810308 -6.161893 -4.068722 3.722275 1.820054 1.278147 0.475908 -9.102449 -13.568690 -31.983220 0.076003 7.185463 19.441365 -0.421757 5.019778 7.745814 0.013665 -0.747438 -2.054148 -3.607406 -2.920494 0.494776 34.396498 -0.283862 14.487592 -0.352999 -2.982979 12.545317 -0.044548 -1.017568 -6.073921 -0.005166 0.414761 -1.139766 6.391928 2.775052 6.818758 1.369273 3.787652 -1.082384 -0.375877 2.405782 -3.240032 -7.236095 -1.948226 -12.287097 3.219564 -1.635491 15.131032 2.791937 -1.301829 9.714598 -7.463416 3.097130 -2.096822 -84.389036 6.903383 17.781114 8.097799 -15.184205 -1.020641 -0.914822 -3.000900 21.995223 8.874829 24.288696 4.002822 -7.125000 0.000000 0.000000 -23.422241 56.142096 -6.670620 5.230600 -2.007011 -2.067578 77.200453 10.786580 24.194802 -20.800593 29.865915 -7.229918 0.916172 -0.442025 0.094781 -13.711640 14.544285 -3.849356 7.125000 0.000000 0.000000 8.750446 -14.686992 6.321204
0.858910 17.315731 -8.716958 -6.139338 -4.059095 3.649357 1.823171 1.285051 0.478911 -9.341653 -13.369876 -31.897949 0.133978 7.322974 19.852531 -0.410079 5.077069 8.281447 0.009930 -0.642475 -1.765596 -3.611734 -2.919169 0.486100 34.353703 -0.241482 14.645726 -0.399575 -3.136467 12.986540 -0.050202 -0.931669 -5.854310 -0.009232 0.613622 -1.686232 6.368001 2.811543 6.826890 1.370505 3.830617 -1.016695 -0.363778 2.427752 -3.070564 -7.315491 -2.042316 -12.486809 3.246635 -1.735117 15.118491 2.806074 -1.348259 9.760697 -7.467107 3.099570 -2.085243 -84.445478 6.784016 17.666041 8.059294 -15.095157 -0.987790 -0.899248 -3.056235 22.172563 8.576006 24.871765 3.925944 -7.125000 0.000000 0.000000 -24.188183 56.647192 -7.199639 5.232697 -2.007734 -2.062989 77.209433 10.958178 24.007739 -20.841898 29.914076 -7.253001 0.920490 -0.453958 0.122572 -13.766326 14.697048 -3.906613 7.125000 0.000000 0.000000 8.711393 -14.515885 6.324608
0.866692 17.312356 -8.620810 -6.075763 -4.037534 3.589008 1.823094 1.294957 0.483774 -9.541952 -13.419845 -31.739554 0.196277 7.453841 20.240332 -0.455205 5.377373 8.684420 0.021843 -0.900274 -2.474869 -3.613340 -2.919477 0.479620 34.249764 -0.235320 14.757985 -0.457046 -3.316470 13.502923 -0.028821 -1.036151 -5.829319 -0.025683 0.961228 -2.642698 6.325376 2.836287 6.820506 1.364325 3.856797 -0.971290 -0.357478 2.441113 -2.953144 -7.399284 -2.142089 -12.588370 3.261131 -1.845293 15.115675 2.815441 -1.402512 9.791230 -7.469334 3.108110 -2.079868 -84.492079 6.782821 17.570046 8.041423 -15.056314 -0.973179 -0.889823 -3.080241 22.343396 8.383573 25.124098 3.854715 -7.125000 0.000000 0.000000 -24.597639 56.846890 -7.452592 5.228320 -2.012475 -2.060384 77.213713 11.030662 23.858299 -20.900306 29.986736 -7.291080 0.916732 -0.458832 0.160533 -13.725331 14.768809 -3.913326 7.125000 0.000000 0.000000 8.741879 -14.442434 6.361234
0.874839 17.309098 -8.524298 -6.006856 -4.014422 3.530293 1.822602 1.305254 0.488878 -9.737194 -13.502154 -31.571653 0.259138 7.583845 20.625095 -0.507716 5.709270 9.070147 0.035791 -1.205233 -3.313858 -3.614591 -2.919997 0.473426 34.137876 -0.233867 14.864280 -0.515934 -3.499919 14.029078 -0.003927 -1.165383 -5.829628 -0.043744 1.328171 -3.652464 6.280322 2.859503 6.812236 1.357182 3.880794 -0.928522 -0.351932 2.453355 -2.842490 -7.483649 -2.242600 -12.677172 3.273993 -1.956842 15.114124 2.824187 -1.457783 9.819740 -7.471370 3.117443 -2.075300 -84.537401 6.796990 17.476531 8.026234 -15.023998 -0.960938 -0.881197 -3.100174 22.513382 8.204970 25.333436 3.784220 -7.125000 0.000000 0.000000 -24.960752 57.006887 -7.669656 5.223102 -2.017739 -2.058036 77.217382 11.090262 23.713750 -20.960938 30.062581 -7.331108 0.911923 -0.462789 0.199817 -13.671898 14.830039 -3.913467 7.125000 0.000000 0.000000 8.781405 -14.381679 6.402179
